<svg width="30" height="30" viewBox="0 0 30 30" fill="none" xmlns="http://www.w3.org/2000/svg">
<path opacity="0.4" d="M25.7349 10.5625C24.4244 4.7875 19.3948 2.1875 14.9766 2.1875C14.9766 2.1875 14.9766 2.1875 14.9642 2.1875C10.5585 2.1875 5.51637 4.775 4.20591 10.55C2.74568 17 6.68954 22.4625 10.259 25.9C11.5819 27.175 13.2793 27.8125 14.9766 27.8125C16.674 27.8125 18.3714 27.175 19.6818 25.9C23.2513 22.4625 27.1951 17.0125 25.7349 10.5625Z" fill="#025595"/>
<path d="M14.9762 16.825C17.1474 16.825 18.9076 15.0621 18.9076 12.8875C18.9076 10.7128 17.1474 8.94995 14.9762 8.94995C12.8049 8.94995 11.0448 10.7128 11.0448 12.8875C11.0448 15.0621 12.8049 16.825 14.9762 16.825Z" fill="#025595"/>
</svg>
